<svg width="24" height="24" viewBox="0 0 24 24" fill="none" xmlns="http://www.w3.org/2000/svg">
  <rect width="24" height="24" rx="4" fill="#2563EB"/>
  <path d="M17.5 5H12V7.5H17.5C18.3284 7.5 19 8.17157 19 9V15C19 15.8284 18.3284 16.5 17.5 16.5H12V19H17.5C19.433 19 21 17.433 21 15.5V9C21 7.067 19.433 5.5 17.5 5.5" stroke="white" stroke-width="2" stroke-linecap="round" stroke-linejoin="round"/>
  <path d="M6.5 5C4.567 5 3 6.567 3 8.5V15C3 16.933 4.567 18.5 6.5 18.5H8.5C10.433 18.5 12 16.933 12 15V8.5C12 6.567 10.433 5 8.5 5H6.5Z" stroke="white" stroke-width="2" stroke-linecap="round" stroke-linejoin="round"/>
</svg>